[Header]
FileType HTR
DataType HTRS
FileVersion 1
NumSegments 64
NumFrames 3
DataFrameRate 24
EulerRotationOrder ZYX
CalibrationUnits mm
RotationUnits Degrees
GlobalAxisofGravity Y
BoneLengthAxis Y
ScaleFactor 1.0
[SegmentNames&Hierarchy]
Hips	GLOBAL
Spine	Hips
Spine1	Spine
Spine2	Spine1
Neck	Spine2
Head	Neck
LeftEye	Head
RightEye	Head
LeftShoulder	Spine2
LeftArm	LeftShoulder
LeftForeArm	LeftArm
LeftHand	LeftForeArm
LeftHandThumb1	LeftHand
LeftHandThumb2	LeftHandThumb1
LeftHandThumb3	LeftHandThumb2
LeftHandThumb4	LeftHandThumb3
LeftHandIndex1	LeftHand
LeftHandIndex2	LeftHandIndex1
LeftHandIndex3	LeftHandIndex2
LeftHandIndex4	LeftHandIndex3
LeftHandMiddle1	LeftHand
LeftHandMiddle2	LeftHandMiddle1
LeftHandMiddle3	LeftHandMiddle2
LeftHandMiddle4	LeftHandMiddle3
LeftHandRing1	LeftHand
LeftHandRing2	LeftHandRing1
LeftHandRing3	LeftHandRing2
LeftHandRing4	LeftHandRing3
LeftHandPinky1	LeftHand
LeftHandPinky2	LeftHandPinky1
LeftHandPinky3	LeftHandPinky2
LeftHandPinky4	LeftHandPinky3
RightShoulder	Spine2
RightArm	RightShoulder
RightForeArm	RightArm
RightHand	RightForeArm
RightHandPinky1	RightHand
RightHandPinky2	RightHandPinky1
RightHandPinky3	RightHandPinky2
RightHandPinky4	RightHandPinky3
RightHandRing1	RightHand
RightHandRing2	RightHandRing1
RightHandRing3	RightHandRing2
RightHandRing4	RightHandRing3
RightHandMiddle1	RightHand
RightHandMiddle2	RightHandMiddle1
RightHandMiddle3	RightHandMiddle2
RightHandMiddle4	RightHandMiddle3
RightHandIndex1	RightHand
RightHandIndex2	RightHandIndex1
RightHandIndex3	RightHandIndex2
RightHandIndex4	RightHandIndex3
RightHandThumb1	RightHand
RightHandThumb2	RightHandThumb1
RightHandThumb3	RightHandThumb2
RightHandThumb4	RightHandThumb3
LeftUpLeg	Hips
LeftLeg	LeftUpLeg
LeftFoot	LeftLeg
LeftToeBase	LeftFoot
RightUpLeg	Hips
RightLeg	RightUpLeg
RightFoot	RightLeg
RightToeBase	RightFoot
[BasePosition]
Hips	0	0	0	0	0	0	1
Spine	0	0	0	0	0	0	1
Spine1	0	0	0	0	0	0	1
Spine2	0	0	0	0	0	0	1
Neck	0	0	0	0	0	0	1
Head	0	0	0	0	0	0	1
LeftEye	0	0	0	0	0	0	1
RightEye	0	0	0	0	0	0	1
LeftShoulder	0	0	0	0	0	0	1
LeftArm	0	0	0	0	0	0	1
LeftForeArm	0	0	0	0	0	0	1
LeftHand	0	0	0	0	0	0	1
LeftHandThumb1	0	0	0	0	0	0	1
LeftHandThumb2	0	0	0	0	0	0	1
LeftHandThumb3	0	0	0	0	0	0	1
LeftHandThumb4	0	0	0	0	0	0	1
LeftHandIndex1	0	0	0	0	0	0	1
LeftHandIndex2	0	0	0	0	0	0	1
LeftHandIndex3	0	0	0	0	0	0	1
LeftHandIndex4	0	0	0	0	0	0	1
LeftHandMiddle1	0	0	0	0	0	0	1
LeftHandMiddle2	0	0	0	0	0	0	1
LeftHandMiddle3	0	0	0	0	0	0	1
LeftHandMiddle4	0	0	0	0	0	0	1
LeftHandRing1	0	0	0	0	0	0	1
LeftHandRing2	0	0	0	0	0	0	1
LeftHandRing3	0	0	0	0	0	0	1
LeftHandRing4	0	0	0	0	0	0	1
LeftHandPinky1	0	0	0	0	0	0	1
LeftHandPinky2	0	0	0	0	0	0	1
LeftHandPinky3	0	0	0	0	0	0	1
LeftHandPinky4	0	0	0	0	0	0	1
RightShoulder	0	0	0	0	0	0	1
RightArm	0	0	0	0	0	0	1
RightForeArm	0	0	0	0	0	0	1
RightHand	0	0	0	0	0	0	1
RightHandPinky1	0	0	0	0	0	0	1
RightHandPinky2	0	0	0	0	0	0	1
RightHandPinky3	0	0	0	0	0	0	1
RightHandPinky4	0	0	0	0	0	0	1
RightHandRing1	0	0	0	0	0	0	1
RightHandRing2	0	0	0	0	0	0	1
RightHandRing3	0	0	0	0	0	0	1
RightHandRing4	0	0	0	0	0	0	1
RightHandMiddle1	0	0	0	0	0	0	1
RightHandMiddle2	0	0	0	0	0	0	1
RightHandMiddle3	0	0	0	0	0	0	1
RightHandMiddle4	0	0	0	0	0	0	1
RightHandIndex1	0	0	0	0	0	0	1
RightHandIndex2	0	0	0	0	0	0	1
RightHandIndex3	0	0	0	0	0	0	1
RightHandIndex4	0	0	0	0	0	0	1
RightHandThumb1	0	0	0	0	0	0	1
RightHandThumb2	0	0	0	0	0	0	1
RightHandThumb3	0	0	0	0	0	0	1
RightHandThumb4	0	0	0	0	0	0	1
LeftUpLeg	0	0	0	0	0	0	1
LeftLeg	0	0	0	0	0	0	1
LeftFoot	0	0	0	0	0	0	1
LeftToeBase	0	0	0	0	0	0	1
RightUpLeg	0	0	0	0	0	0	1
RightLeg	0	0	0	0	0	0	1
RightFoot	0	0	0	0	0	0	1
RightToeBase	0	0	0	0	0	0	1
[Hips]
25	1.82737875	621.3467407	451.4495544	37.51074982	1.299820065	-0.558037281	1.0
26	1.971524715	620.305603	447.6904907	33.21388245	1.362735152	-0.5462700725	1.0
27	2.020245552	619.5084229	441.1845703	28.30749702	1.409596801	-0.5488706827	1.0
[Spine]
25	0	101.8159943	1.315000057	28.42633057	-0.6911500692	1.234182596	1.0
26	0	101.8159943	1.315000057	27.25205231	-0.8407475352	1.203571677	1.0
27	0	101.8159943	1.315000057	24.84368324	-0.9806171656	1.151789427	1.0
[Spine1]
25	0	100.8349991	-10.00800037	12.83072281	-5.089560727e-05	4.419326069e-05	1.0
26	0	100.8349991	-10.00800037	12.80261135	-5.087347381e-05	4.421872654e-05	1.0
27	0	100.8349991	-10.00800037	11.95603371	-5.020113167e-05	4.498041744e-05	1.0
[Spine2]
25	0	91	-13.73399925	16.2901783	-7.547837555e-08	3.075800521e-07	1.0
26	0	91	-13.73399925	15.80514431	-7.261934343e-08	3.082726892e-07	1.0
27	0	91	-13.73399925	14.51424789	-6.494595794e-08	3.099492574e-07	1.0
[Neck]
25	0	166.7169952	-25.16200066	-9.676884651	3.696087276e-07	2.928121887e-07	1.0
26	0	166.7169952	-25.16200066	-8.173578262	3.609930843e-07	3.033420626e-07	1.0
27	0	166.7169952	-25.16200066	-6.709488392	3.523055341e-07	3.133593225e-07	1.0
[Head]
25	0	96.17900085	16.84999847	23.3331852	0.1419641972	-0.1953672171	1.0
26	0	96.17900085	16.84999847	25.39229012	0.1653044522	-0.1758449227	1.0
27	0	96.17900085	16.84999847	25.11356544	0.1782005578	-0.148632586	1.0
[LeftEye]
25	30.6760006	64.09500122	92.83599854	0	0	0	1.0
26	30.6760006	64.09500122	92.83599854	0	0	0	1.0
27	30.6760006	64.09500122	92.83599854	0	0	0	1.0
[RightEye]
25	-30.6760006	64.09500122	92.83499908	0	0	0	1.0
26	-30.6760006	64.09500122	92.83499908	0	0	0	1.0
27	-30.6760006	64.09500122	92.83499908	0	0	0	1.0
[LeftShoulder]
25	45.70400238	109.4599991	-26.28000069	-13.81877041	-20.26267052	38.507061	1.0
26	45.70400238	109.4599991	-26.28000069	-12.94842529	-20.26737213	36.79940414	1.0
27	45.70400238	109.4599991	-26.28000069	-10.72711086	-19.53202629	33.24777603	1.0
[LeftArm]
25	105.923996	-5.24600029	-22.32099915	-64.2795105	-27.54840279	15.82166862	1.0
26	105.923996	-5.24600029	-22.32099915	-62.46182251	-27.65488052	15.68863487	1.0
27	105.923996	-5.24600029	-22.32099915	-58.53053665	-28.11222267	11.95099545	1.0
[LeftForeArm]
25	278.414978	-0.0009999999311	0	-1.991050794e-06	-2.473596096	-0.0001900647039	1.0
26	278.414978	-0.0009999999311	0	-1.033010903e-06	-2.213836342e-05	-0.0002030209871	1.0
27	278.414978	-0.0009999999311	0	-4.279982932e-06	-0.01693410054	-0.0002023342531	1.0
[LeftHand]
25	283.2879944	0	0	8.169981956	-3.621943712	-32.32474899	1.0
26	283.2879944	0	0	8.998756409	-2.937506676	-32.45711517	1.0
27	283.2879944	0	0	8.537546158	-2.850315094	-30.23125076	1.0
[LeftHandThumb1]
25	24.6609993	-15.75	26.8239994	14.53445435	7.834272861	-15.50300407	1.0
26	24.6609993	-15.75	26.8239994	13.66587925	7.087947369	-14.6549387	1.0
27	24.6609993	-15.75	26.8239994	12.03621483	5.627223969	-13.00780869	1.0
[LeftHandThumb2]
25	32.29800034	-18.64699936	18.64699936	72.36445618	51.88785172	52.73961639	1.0
26	32.29800034	-18.64699936	18.64699936	64.50444794	50.85157776	45.98885727	1.0
27	32.29800034	-18.64699936	18.64699936	54.71389008	48.66187668	37.68835449	1.0
[LeftHandThumb3]
25	26.52600098	-15.31499958	15.31499958	13.04191589	22.18248558	21.71736526	1.0
26	26.52600098	-15.31499958	15.31499958	10.87623978	18.89570808	20.53358841	1.0
27	26.52600098	-15.31499958	15.31499958	8.639371872	15.93242741	19.34605789	1.0
[LeftHandThumb4]
25	19.54599953	-11.28499985	11.28499985	0	0	0	1.0
26	19.54599953	-11.28499985	11.28499985	0	0	0	1.0
27	19.54599953	-11.28499985	11.28499985	0	0	0	1.0
[LeftHandIndex1]
25	91.09299469	-5.170999527	22.60099792	-6.672891617	21.75940132	-79.44460297	1.0
26	91.09299469	-5.170999527	22.60099792	-6.061528683	19.71056175	-73.35945892	1.0
27	91.09299469	-5.170999527	22.60099792	-5.232807159	16.87038231	-65.02980042	1.0
[LeftHandIndex2]
25	36.76399994	0	0	-1.128567338	3.449828863	-36.2207756	1.0
26	36.76399994	0	0	-0.9185112119	3.143500805	-32.56905365	1.0
27	36.76399994	0	0	-0.7141379714	2.79838562	-28.62750816	1.0
[LeftHandIndex3]
25	28.83100128	0	0	-0.754116118	2.87029171	-29.43575859	1.0
26	28.83100128	0	0	-0.6541936994	2.68575263	-27.37445831	1.0
27	28.83100128	0	0	-0.5195146799	2.408161402	-24.34461021	1.0
[LeftHandIndex4]
25	23.92700005	0	0	0	0	0	1.0
26	23.92700005	0	0	0	0	0	1.0
27	23.92700005	0	0	0	0	0	1.0
[LeftHandMiddle1]
25	95.33399963	0	0	-6.986217499	7.335002422	-79.06963348	1.0
26	95.33399963	0	0	-6.441101074	6.928422928	-73.96818542	1.0
27	95.33399963	0	0	-5.638994217	6.283511162	-66.53644562	1.0
[LeftHandMiddle2]
25	36.98199844	0	0	-1.848229051	4.259808064	-46.89431	1.0
26	36.98199844	0	0	-1.514634609	3.921877146	-42.22060394	1.0
27	36.98199844	0	0	-1.171707869	3.507853031	-36.93149567	1.0
[LeftHandMiddle3]
25	29.50900078	0	0	-0.6732593179	2.72222352	-27.77859497	1.0
26	29.50900078	0	0	-0.4879000187	2.337089062	-23.58082962	1.0
27	29.50900078	0	0	-0.3441717625	1.975664973	-19.76242256	1.0
[LeftHandMiddle4]
25	28.3390007	0	0	0	0	0	1.0
26	28.3390007	0	0	0	0	0	1.0
27	28.3390007	0	0	0	0	0	1.0
[LeftHandRing1]
25	91.04499817	-0.4390000105	-18.65100098	-6.461090088	-1.140730143	-72.30471039	1.0
26	91.04499817	-0.4390000105	-18.65100098	-5.866948128	0.04705555364	-67.30183411	1.0
27	91.04499817	-0.4390000105	-18.65100098	-5.046793461	1.460228324	-60.3156929	1.0
[LeftHandRing2]
25	31.54000092	0	0	-0.8931785226	3.103547812	-32.10419083	1.0
26	31.54000092	0	0	-0.6888941526	2.751670361	-28.10611725	1.0
27	31.54000092	0	0	-0.5115394592	2.390501499	-24.15402412	1.0
[LeftHandRing3]
25	29.37700081	0	0	-0.6969338059	2.766649723	-28.27324677	1.0
26	29.37700081	0	0	-0.5360617042	2.444370747	-24.73520088	1.0
27	29.37700081	0	0	-0.3926443458	2.105609179	-21.12366295	1.0
[LeftHandRing4]
25	26.47500038	0	0	0	0	0	1.0
26	26.47500038	0	0	0	0	0	1.0
27	26.47500038	0	0	0	0	0	1.0
[LeftHandPinky1]
25	80.77799988	-4.887000084	-38.06099701	-6.588341236	-14.33055305	-70.27957153	1.0
26	80.77799988	-4.887000084	-38.06099701	-5.75909996	-10.8957386	-64.22950745	1.0
27	80.77799988	-4.887000084	-38.06099701	-4.71983099	-6.771967411	-56.22605133	1.0
[LeftHandPinky2]
25	36	0	0	-0.1930811703	1.489749908	-14.76873302	1.0
26	36	0	0	-0.1274412125	1.21383512	-11.98691654	1.0
27	36	0	0	-0.1003585309	1.078400612	-10.63264179	1.0
[LeftHandPinky3]
25	21.14200211	0	0	-1.330859661	3.709743261	-39.45960617	1.0
26	21.14200211	0	0	-1.111360908	3.426246405	-35.93365479	1.0
27	21.14200211	0	0	-0.8249097466	2.992129564	-30.82029343	1.0
[LeftHandPinky4]
25	19.75699997	0	0	0	0	0	1.0
26	19.75699997	0	0	0	0	0	1.0
27	19.75699997	0	0	0	0	0	1.0
[RightShoulder]
25	-45.70000076	109.4620056	-26.28000069	-13.81882572	20.26264191	-38.50706863	1.0
26	-45.70000076	109.4620056	-26.28000069	-12.94847775	20.26735306	-36.79941177	1.0
27	-45.70000076	109.4620056	-26.28000069	-10.72714996	19.53201294	-33.24778366	1.0
[RightArm]
25	-105.9280014	-5.248000145	-22.32099915	-64.27944183	27.54865456	-15.82146263	1.0
26	-105.9280014	-5.248000145	-22.32099915	-62.46179962	27.65512276	-15.68843174	1.0
27	-105.9280014	-5.248000145	-22.32099915	-58.53046799	28.11247635	-11.95079899	1.0
[RightForeArm]
25	-278.414978	0	0	2.180342108e-06	2.473399401	-3.480059149e-06	1.0
26	-278.414978	0	0	-2.196414698e-06	-0.0002166451741	4.156632258e-06	1.0
27	-278.414978	0	0	-1.237346282e-06	0.0167022422	-8.063334462e-06	1.0
[RightHand]
25	-283.2879944	0	0.0009999999311	9.395252228	3.366872549	33.04201889	1.0
26	-283.2879944	0	0.0009999999311	10.21518803	2.672147751	33.17013931	1.0
27	-283.2879944	0	0.0009999999311	9.75302887	2.590717316	30.94636536	1.0
[RightHandPinky1]
25	-80.76699829	-4.885000229	-38.06000137	-5.675469398	15.48726082	69.46064758	1.0
26	-80.76699829	-4.885000229	-38.06000137	-4.965341091	12.01723194	63.4034462	1.0
27	-80.76699829	-4.885000229	-38.06000137	-4.075061321	7.827925682	55.40973282	1.0
[RightHandPinky2]
25	-36	0	0.0009999999311	-0.1534489691	-1.183403134	14.79578876	1.0
26	-36	0	0.0009999999311	-0.101221174	-0.9639214873	12.00922966	1.0
27	-36	0	0.0009999999311	-0.07966706157	-0.8562182784	10.65253258	1.0
[RightHandPinky3]
25	-21.14200211	0	0	-1.059746623	-2.950022221	39.51314926	1.0
26	-21.14200211	0	0	-0.8850688338	-2.724682331	35.98551559	1.0
27	-21.14200211	0	0	-0.6570606828	-2.379584312	30.86832809	1.0
[RightHandPinky4]
25	-19.75699997	0	0	0	0	0	1.0
26	-19.75699997	0	0	0	0	0	1.0
27	-19.75699997	0	0	0	0	0	1.0
[RightHandRing1]
25	-91.03599548	-0.4390000105	-18.65100098	-5.497106552	2.308041811	71.55119324	1.0
26	-91.03599548	-0.4390000105	-18.65100098	-5.003733158	1.095707059	66.55223846	1.0
27	-91.03599548	-0.4390000105	-18.65100098	-4.320085526	-0.3661911488	59.57657623	1.0
[RightHandRing2]
25	-31.54000092	0	0	-0.7114220858	-2.468179703	32.15344238	1.0
26	-31.54000092	0	0	-0.5487705469	-2.188408613	28.15158653	1.0
27	-31.54000092	0	0	-0.4075252414	-1.901228309	24.19487762	1.0
[RightHandRing3]
25	-29.37700081	0	0	-0.5551732779	-2.20032239	28.31885719	1.0
26	-29.37700081	0	0	-0.4270516038	-1.944070339	24.77674675	1.0
27	-29.37700081	0	0	-0.3128364384	-1.67468822	21.16041565	1.0
[RightHandRing4]
25	-26.47500038	0	0	0	0	0	1.0
26	-26.47500038	0	0	0	0	0	1.0
27	-26.47500038	0	0	0	0	0	1.0
[RightHandMiddle1]
25	-95.32500458	0	0	-5.883470535	-6.148659706	78.33383942	1.0
26	-95.32500458	0	0	-5.443911552	-5.754864693	73.24344635	1.0
27	-95.32500458	0	0	-4.792389393	-5.145137787	65.82452393	1.0
[RightHandMiddle2]
25	-36.98199844	0	0	-1.47132659	-3.387168169	46.94885254	1.0
26	-36.98199844	0	0	-1.205972195	-3.118612289	42.27500534	1.0
27	-36.98199844	0	0	-0.933105588	-2.789554119	36.9840126	1.0
[RightHandMiddle3]
25	-29.50900078	0	0	-0.5363060832	-2.167008877	27.82373047	1.0
26	-29.50900078	0	0	-0.3887040019	-1.860821605	23.62094688	1.0
27	-29.50900078	0	0	-0.2742210925	-1.57338953	19.79725456	1.0
[RightHandMiddle4]
25	-28.3390007	0	0.0009999999311	0	0	0	1.0
26	-28.3390007	0	0.0009999999311	0	0	0	1.0
27	-28.3390007	0	0.0009999999311	0	0	0	1.0
[RightHandIndex1]
25	-91.08300018	-5.167999744	22.60099792	-5.567538738	-20.57244873	78.73027802	1.0
26	-91.08300018	-5.167999744	22.60099792	-5.08724165	-18.53906631	72.68508911	1.0
27	-91.08300018	-5.167999744	22.60099792	-4.42925024	-15.74124527	64.39304352	1.0
[RightHandIndex2]
25	-36.76399994	0	0	-0.898776412	-2.743446589	36.2728653	1.0
26	-36.76399994	0	0	-0.7315784097	-2.499925137	32.61862946	1.0
27	-36.76399994	0	0	-0.5688804388	-2.22554183	28.67346954	1.0
[RightHandIndex3]
25	-28.83100128	0	0	-0.6006905437	-2.282714844	29.48261642	1.0
26	-28.83100128	0	0	-0.5211280584	-2.136001825	27.41915894	1.0
27	-28.83100128	0	0	-0.4138870537	-1.9153018	24.38574219	1.0
[RightHandIndex4]
25	-23.92700005	0	0	0	0	0	1.0
26	-23.92700005	0	0	0	0	0	1.0
27	-23.92700005	0	0	0	0	0	1.0
[RightHandThumb1]
25	-24.64799881	-15.72700024	26.82600021	13.26796341	-5.910498619	16.6553669	1.0
26	-24.64799881	-15.72700024	26.82600021	12.41976833	-5.154716492	15.7686615	1.0
27	-24.64799881	-15.72700024	26.82600021	10.82827473	-3.678515196	14.04728222	1.0
[RightHandThumb2]
25	-32.29800034	-18.64699936	18.64699936	75.11497498	-53.19093323	-55.57665253	1.0
26	-32.29800034	-18.64699936	18.64699936	66.95281219	-52.28421402	-48.54952621	1.0
27	-32.29800034	-18.64699936	18.64699936	56.75601196	-50.22376251	-39.87653351	1.0
[RightHandThumb3]
25	-26.52600098	-15.31399918	15.31399918	17.50421524	-27.07338524	-24.65639687	1.0
26	-26.52600098	-15.31399918	15.31399918	15.09316254	-23.87704849	-23.24298286	1.0
27	-26.52600098	-15.31399918	15.31399918	12.65044975	-20.99882126	-21.83776474	1.0
[RightHandThumb4]
25	-19.54599953	-11.28499985	11.28499985	0	0	0	1.0
26	-19.54599953	-11.28499985	11.28499985	0	0	0	1.0
27	-19.54599953	-11.28499985	11.28499985	0	0	0	1.0
[LeftUpLeg]
25	82.07800293	-67.51699829	-15.99599934	-46.06197739	0.4281818867	8.316062927	1.0
26	82.07800293	-67.51699829	-15.99599934	-40.44086075	0.679795444	8.200170517	1.0
27	82.07800293	-67.51699829	-15.99599934	-35.23582077	0.8068037033	7.938920021	1.0
[LeftLeg]
25	0	-443.7049866	2.845999956	93.31249237	10.12894249	-7.819788456	1.0
26	0	-443.7049866	2.845999956	92.59841919	9.520572662	-7.500399113	1.0
27	0	-443.7049866	2.845999956	92.89569855	8.737504005	-7.254777908	1.0
[LeftFoot]
25	0	-444.2789917	-29.8219986	-47.47859573	1.616654038	8.632721901	1.0
26	0	-444.2789917	-29.8219986	-52.58675385	0.4461705983	10.21935558	1.0
27	0	-444.2789917	-29.8219986	-55.05768967	-0.05763140321	10.95903492	1.0
[LeftToeBase]
25	0	-87.28699493	107.1060028	-47.14113235	-4.187972635e-08	3.664011103e-07	1.0
26	0	-87.28699493	107.1060028	-43.09631348	1.769821125e-07	1.701353312e-06	1.0
27	0	-87.28699493	107.1060028	-41.02514267	5.567887342e-07	-3.201465688e-06	1.0
[RightUpLeg]
25	-82.07800293	-67.51699829	-15.99599934	-120.7803345	-4.929472446	-7.673121452	1.0
26	-82.07800293	-67.51699829	-15.99599934	-117.1221771	-4.676473618	-6.381264687	1.0
27	-82.07800293	-67.51699829	-15.99599934	-112.8907394	-4.3134408	-5.102558136	1.0
[RightLeg]
25	0	-443.7049866	2.861999989	82.8600235	-9.286946297	1.851543307	1.0
26	0	-443.7049866	2.861999989	83.68125916	-8.926772118	0.9368522167	1.0
27	0	-443.7049866	2.861999989	84.20062256	-8.204701424	0.415899694	1.0
[RightFoot]
25	0	-444.2770081	-29.83799934	0.4446611702	-2.821552992	0.1807675362	1.0
26	0	-444.2770081	-29.83799934	0.4344680607	-0.9473885298	-0.5426545143	1.0
27	0	-444.2770081	-29.83799934	0.6411753893	0.3197131157	-1.125071168	1.0
[RightToeBase]
25	0	-87.28699493	107.1060028	-1.515573604e-05	-2.909377805e-08	-1.999551955e-07	1.0
26	0	-87.28699493	107.1060028	-1.515573604e-05	-2.909377805e-08	-1.999551955e-07	1.0
27	0	-87.28699493	107.1060028	-1.515573604e-05	-2.909377805e-08	-1.999551955e-07	1.0
[EndOfFile]
